<?xml version="1.0" encoding="utf-8"?>
<!-- Generator: Adobe Illustrator 16.0.0, SVG Export Plug-In . SVG Version: 6.00 Build 0)  -->
<!DOCTYPE svg PUBLIC "-//W3C//DTD SVG 1.1//EN" "http://www.w3.org/Graphics/SVG/1.1/DTD/svg11.dtd">
<svg version="1.1" id="Layer_1" xmlns="http://www.w3.org/2000/svg" xmlns:xlink="http://www.w3.org/1999/xlink" x="0px" y="0px"
	 width="24px" height="24px" viewBox="0 0 24 24" enable-background="new 0 0 24 24" xml:space="preserve">
<g>
	<g>
		<g>
			<g>
				<g>
					<path d="M13.7,16.9h-3.3c-2,0-3.7-1.7-3.7-3.7V9c0-0.3,0.2-0.5,0.5-0.5S7.7,8.7,7.7,9v4.3c0,1.5,1.2,2.7,2.7,2.7h3.3
						c1.5,0,2.7-1.2,2.7-2.7V9c0-0.3,0.2-0.5,0.5-0.5c0.3,0,0.5,0.2,0.5,0.5v4.3C17.3,15.2,15.7,16.9,13.7,16.9z"/>
				</g>
				<g>
					<path d="M6.4,19.3c-0.3,0-0.5-0.2-0.5-0.5c0-0.3,0.2-0.5,0.5-0.5c0.8,0,1.5-0.7,1.5-1.5v-1c0-0.3,0.2-0.5,0.5-0.5
						c0.3,0,0.5,0.2,0.5,0.5v1C8.8,18.3,7.7,19.3,6.4,19.3z"/>
				</g>
				<g>
					<path d="M17.7,19.3c-1.4,0-2.5-1.1-2.5-2.5v-1c0-0.3,0.2-0.5,0.5-0.5c0.3,0,0.5,0.2,0.5,0.5v1c0,0.8,0.7,1.5,1.5,1.5
						c0.3,0,0.5,0.2,0.5,0.5C18.2,19.1,18,19.3,17.7,19.3z"/>
				</g>
				<g>
					<path d="M22.6,23.8H1.4c-0.3,0-0.5-0.2-0.5-0.5v-4.5c0-0.3,0.2-0.5,0.5-0.5h4.8c0.3,0,0.5,0.2,0.5,0.5c0,0.3-0.2,0.5-0.5,0.5
						H1.9v3.5h20.2v-3.5h-4.3c-0.3,0-0.5-0.2-0.5-0.5c0-0.3,0.2-0.5,0.5-0.5h4.8c0.3,0,0.5,0.2,0.5,0.5v4.5
						C23.1,23.6,22.9,23.8,22.6,23.8z"/>
				</g>
				<g>
					<path fill="none" stroke="#000000" stroke-linecap="round" stroke-linejoin="round" stroke-miterlimit="10" d="M5.3,18.9"/>
				</g>
				<g>
					<path fill="none" stroke="#000000" stroke-linecap="round" stroke-linejoin="round" stroke-miterlimit="10" d="M18.8,18.9"/>
				</g>
				<g>
					<g>
						<path d="M12,19.8c-0.1,0-0.1,0-0.1,0l-3.9-1.4c-0.2-0.1-0.4-0.4-0.3-0.6c0.1-0.3,0.4-0.4,0.6-0.3l3.9,1.4
							c0.2,0.1,0.4,0.4,0.3,0.6C12.4,19.7,12.2,19.8,12,19.8z"/>
					</g>
					<g>
						<path d="M12,23.8c-0.3,0-0.5-0.2-0.5-0.5v-4c0-0.2,0.1-0.4,0.3-0.4l3.9-1.4c0.2-0.1,0.5,0,0.6,0.3c0.1,0.2,0,0.5-0.3,0.6
							l-3.6,1.3v3.7C12.5,23.6,12.3,23.8,12,23.8z"/>
					</g>
				</g>
				<g>
					<g>
						<path d="M6.9,7.6c-0.1,0-0.1,0-0.2,0C6.5,7.4,6.4,7.1,6.5,6.9C7,5.9,9.8,5.5,12,5.5c2.2,0,5,0.4,5.5,1.4
							c0.1,0.2,0,0.5-0.2,0.6c-0.2,0.1-0.5,0-0.6-0.2C16.5,7,14.8,6.5,12,6.5S7.6,7,7.4,7.3C7.3,7.5,7.1,7.6,6.9,7.6z"/>
					</g>
				</g>
			</g>
		</g>
		<g>
			<g>
				<path d="M10.4,10.9H9.8c-0.3,0-0.5-0.2-0.5-0.5c0-0.3,0.2-0.5,0.5-0.5h0.6c0.3,0,0.5,0.2,0.5,0.5C10.8,10.7,10.6,10.9,10.4,10.9
					z"/>
			</g>
			<g>
				<path d="M14.3,10.9h-0.6c-0.3,0-0.5-0.2-0.5-0.5c0-0.3,0.2-0.5,0.5-0.5h0.6c0.3,0,0.5,0.2,0.5,0.5
					C14.8,10.7,14.6,10.9,14.3,10.9z"/>
			</g>
		</g>
	</g>
	<g>
		<path d="M17.2,10L17.2,10c-0.3,0-0.4-0.1-0.5-0.3c-0.2-0.3-1.9-0.8-4.7-0.8S7.6,9.5,7.4,9.8C7.3,9.9,7.1,10,6.9,10
			c-0.3,0-0.5-0.2-0.5-0.5V7.5C5.1,7.2,4.1,6.1,4.1,4.8c0-1.3,1.1-2.5,2.5-2.7C7.5,1,11.5,0.9,12,0.9s4.5,0,5.4,1.2
			C18.9,2.4,20,3.5,20,4.8c0,1.3-1,2.3-2.3,2.6v2.1C17.6,9.8,17.4,10,17.2,10z M12,1.9c-2.8,0-4.5,0.5-4.6,0.8
			C7.3,2.9,7.2,3.1,7,3.1C5.9,3.2,5,3.9,5,4.8c0,0.9,0.8,1.7,1.9,1.8c0.2,0,0.4,0.2,0.4,0.5v1.6C8.5,8.2,10.4,8,12,8
			c1.6,0,3.5,0.2,4.7,0.7V7.1c0-0.3,0.2-0.4,0.4-0.5C18.2,6.5,19,5.8,19,4.8c0-0.9-0.8-1.7-1.9-1.8c-0.2,0-0.4-0.2-0.4-0.4
			C16.5,2.4,14.8,1.9,12,1.9z"/>
	</g>
</g>
</svg>
